<?xml version="1.0" standalone="no"?><!DOCTYPE svg PUBLIC "-//W3C//DTD SVG 1.1//EN" "http://www.w3.org/Graphics/SVG/1.1/DTD/svg11.dtd"><svg t="1672581820737" class="icon" viewBox="0 0 1024 1024" version="1.1" xmlns="http://www.w3.org/2000/svg" p-id="1874" xmlns:xlink="http://www.w3.org/1999/xlink" width="200" height="200"><path d="M480.6 310.2c-0.4-2-0.6-4.1-0.6-6.2v-48h-64c-17.7 0-32-14.3-32-32s14.3-32 32-32h192c17.7 0 32 14.3 32 32s-14.3 32-32 32h-64v48c0 2.1-0.2 4.2-0.6 6.2C749.6 326.2 912 498.6 912 709v75h48c17.7 0 32 14.3 32 32s-14.3 32-32 32H64c-17.7 0-32-14.3-32-32s14.3-32 32-32h48v-75c0-210.4 162.4-382.8 368.6-398.8zM848 784v-75c0-185.6-150.4-336-336-336S176 523.4 176 709v75h672z" fill="#333333" p-id="1875"></path><path d="M512 464c17.7 0 32 14.3 32 32s-14.3 32-32 32c-106 0-192 86-192 192 0 17.7-14.3 32-32 32s-32-14.3-32-32c0-141.4 114.6-256 256-256z" fill="#0076FF" p-id="1876"></path></svg>