<?xml version="1.0" standalone="no"?><!DOCTYPE svg PUBLIC "-//W3C//DTD SVG 1.1//EN" "http://www.w3.org/Graphics/SVG/1.1/DTD/svg11.dtd"><svg t="1672581872707" class="icon" viewBox="0 0 1024 1024" version="1.1" xmlns="http://www.w3.org/2000/svg" p-id="2067" xmlns:xlink="http://www.w3.org/1999/xlink" width="200" height="200"><path d="M515 884.82H128.23a25 25 0 0 1-25-25V344.06a25 25 0 0 1 25-25H515a25 25 0 0 1 25 25v515.76a25 25 0 0 1-25 25z m-361.81-50H490V369.06H153.23z" fill="" p-id="2068"></path><path d="M216.89 417.8a17.62 17.62 0 1 0-33.45 0A17.6 17.6 0 1 0 196 449.6l-3.75 18.48h15.89l-3.76-18.48a17.6 17.6 0 1 0 12.54-31.8zM361.23 583a42.26 42.26 0 1 0-80.23 0 42.23 42.23 0 1 0 30.08 76.3l-9 44.33h38.14l-9-44.33a42.23 42.23 0 1 0 30.01-76.3zM462.18 779.62a17.61 17.61 0 1 1-33.45 0 17.6 17.6 0 1 1 12.54-31.8l-3.76-18.48h15.89l-3.75 18.48a17.6 17.6 0 1 1 12.53 31.8zM642.8 542.6l-26.84-94.86 83.33-52.68 26.84 94.86-83.33 52.68zM589.82 334.23l-17.12-60.5 53.14-33.59 17.13 60.49-53.15 33.6zM677.54 717.29l-17.12-60.5 53.15-33.59 17.12 60.5-53.15 33.59z" fill="" p-id="2069"></path><path d="M739.84 813.85a24.84 24.84 0 0 1-8.93-1.66L506.1 726.12a25 25 0 0 1-16.1-23.35V368.35a25 25 0 0 1-17.44-33.23l67.07-175.19a25 25 0 0 1 32.37-14.4l361.2 138.3a25 25 0 0 1 14.41 32.29L763.2 797.78a25 25 0 0 1-23.36 16.07zM540 685.58l185.4 71L892 321.59 577.42 201.16 530.3 324.25a25 25 0 0 1 9.7 19.81z" fill="" p-id="2070"></path></svg>