<?xml version="1.0" standalone="no"?><!DOCTYPE svg PUBLIC "-//W3C//DTD SVG 1.1//EN" "http://www.w3.org/Graphics/SVG/1.1/DTD/svg11.dtd"><svg t="1672579768540" class="icon" viewBox="0 0 1024 1024" version="1.1" xmlns="http://www.w3.org/2000/svg" p-id="4092" xmlns:xlink="http://www.w3.org/1999/xlink" width="200" height="200"><path d="M128 127.786667v597.76c0 23.466667 18.944 42.453333 42.24 42.453333h683.52c23.125333 0 42.24-19.114667 42.24-42.453333V127.786667A42.368 42.368 0 0 0 853.76 85.333333H170.24a42.538667 42.538667 0 0 0-42.24 42.453334zM767.573333 853.333333H281.685333l-91.989333 145.749334a42.666667 42.666667 0 0 1-72.149333-45.525334L180.736 853.333333h-10.453333A127.701333 127.701333 0 0 1 42.666667 725.546667V127.786667A127.872 127.872 0 0 1 170.24 0h683.52A127.701333 127.701333 0 0 1 981.333333 127.786667v597.76a127.957333 127.957333 0 0 1-113.322666 126.976l63.744 101.034666a42.666667 42.666667 0 0 1-72.149334 45.525334L767.573333 853.333333zM128 256V170.666667h768v85.333333H128z m0 213.333333V384h768v85.333333H128z m341.333333-213.333333h85.333334v128h-85.333334V256z m277.333334 426.666667a64 64 0 1 1 0-128 64 64 0 0 1 0 128z m-469.333334 0a64 64 0 1 1 0-128 64 64 0 0 1 0 128z" fill="#3D3D3D" p-id="4093"></path></svg>